<?xml version="1.0" encoding="UTF-8"?>
<svg width="260" height="64" viewBox="0 0 260 64" fill="none" xmlns="http://www.w3.org/2000/svg">
  <defs>
    <linearGradient id="staircaseGradient" x1="0" y1="0" x2="0" y2="64" gradientUnits="userSpaceOnUse">
      <stop stop-color="#2563eb"/>
      <stop offset="1" stop-color="#1e3a8a"/>
    </linearGradient>
  </defs>
  <!-- Stylized R with staircase -->
  <g>
    <rect x="0" y="0" width="64" height="64" rx="16" fill="url(#staircaseGradient)"/>
    <path d="M20 48V16h16c7 0 12 5 12 12 0 5-3 9-8 11l8 9H36l-7-9v9h-9zm9-16h7c2 0 4-2 4-4s-2-4-4-4h-7v8z" fill="#fff"/>
    <!-- Staircase cutout -->
    <rect x="30" y="32" width="6" height="6" fill="#fff"/>
    <rect x="24" y="38" width="6" height="6" fill="#fff"/>
    <rect x="18" y="44" width="6" height="6" fill="#fff"/>
  </g>
  <!-- RoleRaise Text -->
  <text x="80" y="44" font-family="'Inter', 'Segoe UI', Arial, sans-serif" font-size="40" font-weight="700" fill="#2563eb" letter-spacing="0.5">
    RoleRaise
  </text>
</svg>
