 <svg xmlns="http://www.w3.org/2000/svg" width="232" height="221" viewBox="0 0 232 221" preserveAspectRatio="xMidYMid meet">
  <g transform="translate(0,221) scale(0.05,-0.05)" fill="#307292" stroke="none">
    <path d="M1413 3467 c-7 -8 -9 -109 -3 -225 5 -117 20 -597 33 -1067 l24 -855 345 0 c257 0 347 6 354 25 5 14 4 172 -2 352 -12 393 -39 362 316 363 149 0 292 6 318 13 l48 13 -12 320 c-16 425 -42 394 333 394 349 0 353 -2 353 -150 0 -140 -16 -150 -234 -150 l-186 0 0 -349 c0 -423 30 -391 -369 -391 l-291 0 0 -360 c0 -198 -2 -362 -5 -364 -3 -2 -216 -9 -475 -15 l-470 -11 -7 -60 c-4 -33 -1 -153 7 -268 l14 -208 923 13 c1191 17 1713 34 1713 56 0 10 -139 203 -310 431 -347 462 -338 442 -232 493 871 417 669 1716 -307 1971 -160 42 -1839 67 -1878 29z"/>
  </g>
</svg>